<?xml version="1.0" encoding="utf-8"?>
<!-- Generator: Adobe Illustrator 16.0.0, SVG Export Plug-In . SVG Version: 6.00 Build 0)  -->
<!DOCTYPE svg PUBLIC "-//W3C//DTD SVG 1.1//EN" "http://www.w3.org/Graphics/SVG/1.1/DTD/svg11.dtd">
<svg version="1.1" xmlns="http://www.w3.org/2000/svg" xmlns:xlink="http://www.w3.org/1999/xlink" x="0px" y="0px" width="300px"
	 height="300px" viewBox="0 0 300 300" enable-background="new 0 0 300 300" xml:space="preserve">
<g id="Layer_1">
	<circle id="circle-red" fill="#F74646" cx="150" cy="150" r="150"/>
	<g>
		<path id="mi" fill="#FFF" d="M160.007,73.302c0.546-0.649,0.815-1.203,1.086-1.758c1.26-2.586,0.321-4.415-2.635-5.855
			c-0.186-0.09-0.369-0.18-0.555-0.27c-13.573-5.926-30.377-13.196-44.604-20.126c-4.065-1.98-6.036-5.913-4.241-10.067
			c0.09-0.185,0.09-0.185,0.18-0.369c2.25-4.619,6.466-5.766,10.436-4.062c16.349,7.735,34.081,15.916,50.152,23.286
			c0.555,0.271,1.108,0.54,1.479,0.721c4.804,2.34,7.873,5.892,9.205,10.198c0.952,3.208,0.712,6.519-1.269,10.584
			c-0.99,2.032-2.53,4.254-4.345,6.571c-7.622,9.546-17.798,21.049-28.432,32.558c13.787,8.772,27.625,22.601,38.618,36.642
			c6.784-10.641,13.728-23.489,21.107-38.64c2.341-4.804,6.742-5.861,10.807-3.881c4.434,2.159,6.591,6.182,4.341,10.801
			c-0.721,1.479-1.44,2.957-2.16,4.435c-7.92,16.26-15.955,30.406-23.651,41.517c6.912,10.682,12.445,21.378,16.702,32.824
			c1.41,3.202,1.169,6.514-0.001,8.916c-0.989,2.032-2.443,3.61-4.367,4.273c-2.469,1.312-4.951,1.246-6.983,0.256
			s-3.52-2.629-4.373-5.102c-3.222-9.342-7.173-18.125-12.599-27.169c-19.887,23.461-43.401,33.725-72.926,31.917
			c-1.749-0.166-3.222-0.427-4.515-1.057c-2.772-1.35-4.36-3.724-4.208-6.85c-0.015-1.379,0.341-2.578,0.881-3.687
			c1.53-3.141,4.637-4.827,8.039-4.771c25.478,1.666,45.606-7.275,63.666-29.799c-9.529-14.699-24.482-29.527-39.381-39.299
			c-12.919,12.91-26.306,24.906-37.894,33.207c-18.063,13.147-30.186,14.101-41.087,8.791c-11.824-5.76-18.89-22.231-8.72-43.11
			c13.95-28.639,45.662-37.424,84.648-18.434C142.954,95.171,152.305,83.952,160.007,73.302z M62.714,130.84
			c-5.67,11.641-3.202,19.244,2.341,21.943c5.358,2.61,12.517,1.525,25.743-8.264c9.668-7.178,20.327-16.388,30.332-26.603
			C94.34,104.867,72.074,111.624,62.714,130.84z"/>
	</g>
</g>
</svg>
