<?xml version="1.0" encoding="utf-8"?>
<!-- Generator: Adobe Illustrator 16.0.0, SVG Export Plug-In . SVG Version: 6.00 Build 0)  -->
<!DOCTYPE svg PUBLIC "-//W3C//DTD SVG 1.1//EN" "http://www.w3.org/Graphics/SVG/1.1/DTD/svg11.dtd">
<svg version="1.1" xmlns="http://www.w3.org/2000/svg" xmlns:xlink="http://www.w3.org/1999/xlink" x="0px" y="0px" width="300px"
	 height="300px" viewBox="0 0 300 300" enable-background="new 0 0 300 300" xml:space="preserve">
<g id="Layer_1" display="none">
	<g id="Layer_1_1_" display="inline">
		<circle id="circle-red" fill="#F74646" cx="150" cy="150" r="150"/>
		<g display="none">
			<path id="mi" display="inline" fill="#FFFFFF" d="M160.007,73.302c0.546-0.649,0.815-1.203,1.086-1.758
				c1.261-2.586,0.321-4.415-2.635-5.855c-0.187-0.09-0.369-0.18-0.556-0.27c-13.572-5.926-30.376-13.196-44.604-20.126
				c-4.065-1.98-6.036-5.913-4.241-10.067c0.09-0.185,0.09-0.185,0.18-0.369c2.25-4.619,6.466-5.766,10.436-4.062
				c16.349,7.735,34.081,15.916,50.152,23.286c0.555,0.271,1.107,0.54,1.479,0.721c4.805,2.34,7.873,5.892,9.205,10.198
				c0.952,3.208,0.713,6.519-1.269,10.584c-0.99,2.032-2.53,4.254-4.345,6.571c-7.623,9.546-17.799,21.049-28.433,32.558
				c13.787,8.772,27.625,22.601,38.618,36.643c6.784-10.642,13.729-23.489,21.107-38.641c2.34-4.804,6.742-5.861,10.807-3.881
				c4.434,2.159,6.591,6.182,4.341,10.801c-0.721,1.479-1.44,2.957-2.159,4.435c-7.921,16.26-15.955,30.407-23.652,41.517
				c6.912,10.683,12.445,21.378,16.703,32.824c1.41,3.202,1.168,6.514-0.002,8.916c-0.988,2.032-2.442,3.61-4.367,4.272
				c-2.469,1.312-4.95,1.246-6.982,0.256c-2.031-0.989-3.52-2.629-4.373-5.102c-3.222-9.342-7.173-18.125-12.6-27.169
				c-19.887,23.461-43.4,33.726-72.925,31.917c-1.749-0.166-3.222-0.427-4.515-1.057c-2.772-1.351-4.36-3.725-4.208-6.851
				c-0.015-1.379,0.341-2.577,0.881-3.687c1.53-3.141,4.637-4.827,8.039-4.771c25.478,1.666,45.606-7.275,63.666-29.799
				c-9.529-14.699-24.482-29.527-39.381-39.299c-12.919,12.91-26.306,24.906-37.894,33.207
				c-18.063,13.146-30.186,14.102-41.087,8.791c-11.824-5.76-18.89-22.231-8.72-43.11c13.95-28.639,45.662-37.424,84.648-18.434
				C142.954,95.171,152.305,83.952,160.007,73.302z M62.714,130.84c-5.67,11.641-3.202,19.244,2.341,21.943
				c5.358,2.609,12.517,1.525,25.743-8.264c9.668-7.178,20.327-16.388,30.332-26.603C94.34,104.867,72.074,111.624,62.714,130.84z"
				/>
		</g>
	</g>
	
		<text transform="matrix(0.8852 0.4652 -0.4652 0.8852 26.3013 152.7412)" display="inline" fill="#FFFFFF" font-family="'HiraMaruProN-W4-83pv-RKSJ-H'" font-size="197.4003">み</text>
</g>
<g id="path1">
	<path fill="none" stroke="#424242" stroke-miterlimit="10" d="M122.5,38.729c22,15.771,52,22.521,52.5,30.021
		c0.745,11.177-87.565,106.84-113.743,84.749c-19.049-16.075-1.009-48.935,32.633-52.593c32.277-3.51,100.944,54.823,108.61,98.823"
		/>
	<path fill="none" stroke="#424242" stroke-miterlimit="10" d="M228.167,92.833"/>
</g>
<g id="path2">
	<path fill="none" stroke="#05CE05" stroke-miterlimit="10" d="M214.501,115.167c0,0-47,98-103.333,83"/>
</g>
</svg>
