<?xml version="1.0" encoding="UTF-8" standalone="no"?>
<svg width="465px" height="436px" viewBox="0 0 465 436" version="1.1" xmlns="http://www.w3.org/2000/svg" xmlns:xlink="http://www.w3.org/1999/xlink" xmlns:sketch="http://www.bohemiancoding.com/sketch/ns">
    <!-- Generator: Sketch 3.3.3 (12081) - http://www.bohemiancoding.com/sketch -->
    <title>icons</title>
    <desc>Created with Sketch.</desc>
    <defs></defs>
    <g id="Page-1" stroke="none" stroke-width="1" fill="none" fill-rule="evenodd" sketch:type="MSPage">
        <g id="icons" sketch:type="MSLayerGroup" transform="translate(-1.000000, 0.000000)">
            <g id="Oval-1-Copy-+-Rectangle-1-Copy-4-+-Rectangle-1-Copy-5" transform="translate(1.000000, 0.000000)" sketch:type="MSShapeGroup">
                <circle id="Oval-1-Copy" fill="#FF1F1F" cx="61" cy="61" r="61"></circle>
                <path d="M41.0623053,37.0075441 C41.0623053,34.2419539 43.300645,32 46.0568085,32 L101.093732,32 C103.85212,32 106.088235,34.2347797 106.088235,37.0075441 L106.088235,39.9924559 C106.088235,42.7580461 103.849896,45 101.093732,45 L46.0568085,45 C43.2984206,45 41.0623053,42.7652203 41.0623053,39.9924559 L41.0623053,37.0075441 Z M41,58.0075441 C41,55.2419539 43.2383397,53 45.9945033,53 L101.031427,53 C103.789815,53 106.02593,55.2347797 106.02593,58.0075441 L106.02593,60.9924559 C106.02593,63.7580461 103.78759,66 101.031427,66 L45.9945033,66 C43.2361153,66 41,63.7652203 41,60.9924559 L41,58.0075441 Z M41.0623053,80.0075441 C41.0623053,77.2419539 43.300645,75 46.0568085,75 L101.093732,75 C103.85212,75 106.088235,77.2347797 106.088235,80.0075441 L106.088235,82.9924559 C106.088235,85.7580461 103.849896,88 101.093732,88 L46.0568085,88 C43.2984206,88 41.0623053,85.7652203 41.0623053,82.9924559 L41.0623053,80.0075441 Z" id="Rectangle-1-Copy-4" fill="#FFFFFF"></path>
                <path d="M17.0162731,37.0075441 C17.0162731,34.2419539 19.2540634,32 22.0200923,32 L28.9961809,32 C31.7597139,32 34,34.2347797 34,37.0075441 L34,39.9924559 C34,42.7580461 31.7622097,45 28.9961809,45 L22.0200923,45 C19.2565593,45 17.0162731,42.7652203 17.0162731,39.9924559 L17.0162731,37.0075441 Z M17,58.0075441 C17,55.2419539 19.2377903,53 22.0038191,53 L28.9799077,53 C31.7434407,53 33.9837269,55.2347797 33.9837269,58.0075441 L33.9837269,60.9924559 C33.9837269,63.7580461 31.7459366,66 28.9799077,66 L22.0038191,66 C19.2402861,66 17,63.7652203 17,60.9924559 L17,58.0075441 Z M17.0162731,80.0075441 C17.0162731,77.2419539 19.2540634,75 22.0200923,75 L28.9961809,75 C31.7597139,75 34,77.2347797 34,80.0075441 L34,82.9924559 C34,85.7580461 31.7622097,88 28.9961809,88 L22.0200923,88 C19.2565593,88 17.0162731,85.7652203 17.0162731,82.9924559 L17.0162731,80.0075441 Z" id="Rectangle-1-Copy-5" fill="#FFFFFF"></path>
            </g>
            <g id="Oval-1-Copy-2-+-Triangle-1" transform="translate(62.000000, 212.000000) rotate(-270.000000) translate(-62.000000, -212.000000) translate(1.000000, 151.000000)" sketch:type="MSShapeGroup">
                <circle id="Oval-1-Copy-2" fill="#FF1F1F" cx="61" cy="61" r="61"></circle>
                <path d="M61.5,19 L96,90 C96,90 73.4461806,75.8619792 61.8151042,75.8619792 C50.4461806,75.8619792 27,90 27,90 L61.5,19 Z" id="Triangle-1" fill="#FFFFFF"></path>
            </g>
            <g id="Oval-1-Copy-2-+-Triangle-1-Copy-Copy-Copy-Copy" transform="translate(62.000000, 375.000000) rotate(-270.000000) translate(-62.000000, -375.000000) translate(1.000000, 314.000000)" fill="#FF1F1F" sketch:type="MSShapeGroup">
                <circle id="Oval-1-Copy-2" cx="61" cy="61" r="61"></circle>
            </g>
            <g id="Oval-1-Copy-2-+-Triangle-1-Copy-Copy" transform="translate(233.500000, 212.000000) rotate(-90.000000) translate(-233.500000, -212.000000) translate(172.500000, 150.500000)" sketch:type="MSShapeGroup">
                <circle id="Oval-1-Copy-2" fill="#FF1F1F" transform="translate(61.000000, 62.000000) scale(-1, 1) translate(-61.000000, -62.000000) " cx="61" cy="62" r="61"></circle>
                <path d="M61.5,24 L96,95 C96,95 73.4461806,80.8619792 61.8151042,80.8619792 C50.4461806,80.8619792 27,95 27,95 L61.5,24 Z" id="Triangle-1" fill="#FFFFFF"></path>
            </g>
            <g id="Oval-1-Copy-2-+-Triangle-1-Copy-Copy-Copy-Copy-Copy" transform="translate(234.000000, 375.000000) rotate(-90.000000) translate(-234.000000, -375.000000) translate(173.000000, 314.000000)" fill="#FF1F1F" sketch:type="MSShapeGroup">
                <circle id="Oval-1-Copy-2" transform="translate(61.000000, 61.000000) scale(-1, 1) translate(-61.000000, -61.000000) " cx="61" cy="61" r="61"></circle>
            </g>
            <g id="Oval-1-Copy-2-+-Triangle-1-Copy-Copy-Copy-+-わ" transform="translate(343.000000, 151.000000)">
                <g id="Oval-1-Copy-2-+-Triangle-1-Copy-Copy-Copy" transform="translate(62.000000, 61.000000) rotate(-90.000000) translate(-62.000000, -61.000000) translate(1.000000, 0.000000)" fill="#FF1F1F" sketch:type="MSShapeGroup">
                    <circle id="Oval-1-Copy-2" transform="translate(61.000000, 61.000000) scale(-1, 1) translate(-61.000000, -61.000000) " cx="61" cy="61" r="61"></circle>
                </g>
                <text id="わ" sketch:type="MSTextLayer" transform="translate(62.000000, 85.000000) rotate(-21.000000) translate(-62.000000, -85.000000) " font-family="Hiragino Maru Gothic Pro" font-size="72" font-weight="normal" fill="#FFFFFF">
                    <tspan x="26" y="94">わ</tspan>
                </text>
            </g>
            <g id="Oval-1-Copy-2-+-Triangle-1-Copy-Copy-Copy-+-わ-Copy" transform="translate(343.000000, 314.000000)" fill="#FF1F1F" sketch:type="MSShapeGroup">
                <g id="Oval-1-Copy-2-+-Triangle-1-Copy-Copy-Copy" transform="translate(62.000000, 61.000000) rotate(-90.000000) translate(-62.000000, -61.000000) translate(1.000000, 0.000000)">
                    <circle id="Oval-1-Copy-2" transform="translate(61.000000, 61.000000) scale(-1, 1) translate(-61.000000, -61.000000) " cx="61" cy="61" r="61"></circle>
                </g>
            </g>
            <g id="Oval-1-Copy-2-+-Triangle-1-Copy-+-Rectangle-13-+-Triangle-2" transform="translate(173.000000, 0.000000)" sketch:type="MSShapeGroup">
                <g id="Oval-1-Copy-2-+-Triangle-1-Copy" transform="translate(0.000000, 0.900000)" fill="#FF1F1F">
                    <ellipse id="Oval-1-Copy-2" cx="61" cy="60.5" rx="61" ry="60.5"></ellipse>
                </g>
                <rect id="Rectangle-13" fill="#FFFFFF" x="47.2775682" y="33.2867187" width="27.4448635" height="41.781699" rx="5"></rect>
                <path d="M21.4471085,70.4180047 L100.552892,70.4180047 L61,102.513281 L21.4471085,70.4180047 Z" id="Triangle-2" fill="#FFFFFF"></path>
            </g>
            <g id="Oval-1-Copy-2-+-Triangle-1-Copy-+-Rectangle-13-+-Triangle-2-Copy-+-み" transform="translate(344.000000, 0.000000)">
                <g id="Oval-1-Copy-2-+-Triangle-1-Copy-+-Rectangle-13-+-Triangle-2-Copy" fill="#FF1F1F" sketch:type="MSShapeGroup">
                    <g id="Oval-1-Copy-2-+-Triangle-1-Copy" transform="translate(0.000000, 0.900000)">
                        <ellipse id="Oval-1-Copy-2" cx="61" cy="60.5" rx="61" ry="60.5"></ellipse>
                    </g>
                </g>
                <text id="み" sketch:type="MSTextLayer" transform="translate(63.000000, 89.000000) rotate(21.000000) translate(-63.000000, -89.000000) " font-family="Hiragino Maru Gothic Pro" font-size="72" font-weight="normal" fill="#FFFFFF">
                    <tspan x="27" y="98">み</tspan>
                </text>
            </g>
            <g id="Group" transform="translate(37.000000, 333.000000)" sketch:type="MSShapeGroup">
                <g id="Rectangle-11" fill="#FFFFFF">
                    <rect x="0" y="0" width="50" height="84" rx="5"></rect>
                </g>
                <rect id="Rectangle-13" fill="#4A4A4A" x="20" y="4" width="10" height="1" rx="1"></rect>
                <rect id="Rectangle-11-Copy" fill="#4A4A4A" x="2" y="10" width="46" height="64"></rect>
                <circle id="Oval-10" stroke="#4A4A4A" cx="25" cy="79" r="4"></circle>
            </g>
            <g id="Rectangle-11" transform="translate(203.000000, 332.000000)" fill="#FFFFFF" sketch:type="MSShapeGroup">
                <rect x="0" y="0" width="63" height="84" rx="5"></rect>
            </g>
            <rect id="Rectangle-13" fill="#4A4A4A" sketch:type="MSShapeGroup" x="228.2" y="336" width="12.6" height="1" rx="1"></rect>
            <rect id="Rectangle-11-Copy" fill="#4A4A4A" sketch:type="MSShapeGroup" x="205.52" y="342" width="57.96" height="64"></rect>
            <circle id="Oval-10" stroke="#4A4A4A" sketch:type="MSShapeGroup" cx="235" cy="411" r="4"></circle>
            <g id="Group-+-Oval-10-Copy" transform="translate(364.000000, 345.000000)" sketch:type="MSShapeGroup">
                <g id="Group">
                    <rect id="Rectangle-18" fill="#FFFFFF" x="34.5428571" y="36.7304348" width="8.91428571" height="26.7130435"></rect>
                    <rect id="Rectangle-17" fill="#FFFFFF" x="0" y="0" width="78" height="52.3130435" rx="2.80349991"></rect>
                    <rect id="Rectangle-17-Copy" fill="#4A4A4A" x="2.78571429" y="2.7826087" width="72.4285714" height="43.4086957" rx="2.80349991"></rect>
                    <rect id="Rectangle-19" fill="#FFFFFF" x="21.1714286" y="58.9913043" width="35.6571429" height="5.00869565" rx="2.80349991"></rect>
                </g>
                <ellipse id="Oval-10-Copy" stroke="#4A4A4A" stroke-width="0.560699981" cx="39" cy="49.5304348" rx="2.22857143" ry="2.22608696"></ellipse>
            </g>
        </g>
    </g>
</svg>